HIERARCHY
ROOT Hips
{
  OFFSET 1.44925e-005 102.336 -0.101585
  CHANNELS 6 Xposition Yposition Zposition Zrotation Xrotation Yrotation
  JOINT RightUpLeg
  {
    OFFSET -8.9458 -8.66707 0.101652
    CHANNELS 3 Zrotation Xrotation Yrotation
    JOINT RightLeg
    {
      OFFSET 0 -44.4227 1.3727
      CHANNELS 3 Zrotation Xrotation Yrotation
      JOINT RightFoot
      {
        OFFSET 0.253549 -42.0924 -1.46059
        CHANNELS 3 Zrotation Xrotation Yrotation
        JOINT RightToes
        {
          OFFSET 0.04 -4.41509 8.4991
          CHANNELS 3 Zrotation Xrotation Yrotation
          End Site
          {
            OFFSET -0.08 -0.137448 9.77979
          }
        }
      }
    }
  }
  JOINT Spine
  {
    OFFSET 0 11.8905 0
    CHANNELS 3 Zrotation Xrotation Yrotation
    JOINT Spine1
    {
      OFFSET 0 25.6574 0.127663
      CHANNELS 3 Zrotation Xrotation Yrotation
      JOINT HEad
      {
        OFFSET 0 8.73416 0.011341
        CHANNELS 3 Zrotation Xrotation Yrotation
        End Site
        {
          OFFSET -0.29 12.7742 2.51395
        }
      }
      JOINT LeftShoulder1
      {
        OFFSET 8.99 -0.362252 -0.22
        CHANNELS 3 Zrotation Xrotation Yrotation
        JOINT LeftArm
        {
          OFFSET 10.2827 -0.00337999 0.322123
          CHANNELS 3 Zrotation Xrotation Yrotation
          JOINT LeftForeArm
          {
            OFFSET 26.2597 0.099144 -1.42434
            CHANNELS 3 Zrotation Xrotation Yrotation
            JOINT LeftHand
            {
              OFFSET 22.0902 0.085362 1.02216
              CHANNELS 3 Zrotation Xrotation Yrotation
              End Site
              {
                OFFSET 13.419 -0.6 1.50291
              }
            }
          }
        }
      }
      JOINT RightShoulder
      {
        OFFSET -8.99 -0.362252 -0.22
        CHANNELS 3 Zrotation Xrotation Yrotation
        JOINT RightArm
        {
          OFFSET -10.2827 -0.00338 0.322123
          CHANNELS 3 Zrotation Xrotation Yrotation
          JOINT RightForeArm
          {
            OFFSET -26.364 0.099144 -1.42434
            CHANNELS 3 Zrotation Xrotation Yrotation
            JOINT RightHand
            {
              OFFSET -22.0324 0.085362 1.02216
              CHANNELS 3 Zrotation Xrotation Yrotation
              End Site
              {
                OFFSET -13.3284 -0.6 1.50291
              }
            }
          }
        }
      }
    }
  }
  JOINT LeftUpLeg
  {
    OFFSET 8.9458 -8.66707 0.101652
    CHANNELS 3 Zrotation Xrotation Yrotation
    JOINT LeftLeg
    {
      OFFSET 0 -44.4227 1.3727
      CHANNELS 3 Zrotation Xrotation Yrotation
      JOINT LeftFoot
      {
        OFFSET -0.253549 -42.0924 -1.46059
        CHANNELS 3 Zrotation Xrotation Yrotation
        JOINT LeftToes
        {
          OFFSET -0.04 -4.41509 8.4991
          CHANNELS 3 Zrotation Xrotation Yrotation
          End Site
          {
            OFFSET 0.08 -0.047448 9.77979
          }
        }
      }
    }
  }
}
MOTION
Frames:	7
Frame Time:	0.0333333
-51.9361 89.9179 190.573 0.461606 -1.84572 142.293 -13.988 -11.5938 -16.4113 -0.662173 60.0028 -0.189797 16.9913 -45.0509 5.67297 0.0462048 0.000530889 0.662642 10.8365 30.3361 -4.64908 2.39087 1.78968 -2.51931 -4.75838 -16.8992 25.6982 -11.7676 1.08086 -2.20875 -12.4131 3.77085 -13.8453 1.03636 25.5561 -40.8449 0.820113 9.9009 -8.34653 24.1742 3.22425 6.36072 -8.7885 -48.0764 -41.1554 13.3565 12.0453 41.2949 -43.8611 11.6264 -9.90521 34.486 -44.8653 22.9999 1.28342 76.76 -0.760906 -9.63962 -15.0675 -0.570961 -1.38477e-009 8.75232e-006 -1.47222e-008 
-54.21 88.0875 187.992 -0.10092 -2.49178 139.979 -16.9267 -14.5442 -15.4137 -0.788474 64.0094 -0.259564 18.8391 -45.5598 6.44445 0.0462048 0.000530889 0.662642 10.6515 32.5258 -4.01905 2.14194 2.10044 -1.70619 -4.91007 -20.0425 25.8657 -13.4105 1.06441 -1.70884 -11.51 0.143124 -11.8175 -2.1837 22.2592 -35.8743 0.116545 9.97584 -7.11955 25.0807 3.60162 7.282 -14.6732 -49.8319 -44.4597 15.4985 7.63115 36.8815 -44.0442 12.5252 -12.2116 42.558 -46.8429 27.3324 0.882399 65.7274 0.508595 -5.3587 -11.97 -0.144637 -1.38477e-009 8.75232e-006 -1.47222e-008 
-56.0734 86.6113 184.532 -0.785536 -2.7182 140.15 -20.0893 -14.5896 -15.2818 -0.918701 65.2657 -1.44201 21.1521 -45.4991 7.29454 0.0462048 0.000530889 0.662642 10.2691 33.3193 -3.89101 3.0971 2.67058 -1.87327 -4.91115 -22.037 25.5241 -15.2026 1.08921 -1.43341 -12.8892 -4.70457 -10.9758 -6.21267 16.3837 -30.4221 1.16073 9.86619 -5.91928 26.5374 4.10627 8.35923 -19.0043 -53.2431 -47.815 17.3363 4.23561 35.0429 -44.1854 13.1685 -13.844 45.991 -47.2265 28.7033 0.507151 52.0978 0.740033 -2.93752 -10.3443 -0.0181841 -1.38477e-009 8.75232e-006 -1.47222e-008 
-57.6647 85.3384 180.093 -1.18453 -2.4163 142.586 -22.5378 -11.3706 -14.7897 -1.10511 64.0617 -4.3041 23.2869 -45.8656 8.18356 0.0462048 0.000530889 0.662642 10.8173 33.4834 -4.1311 4.35836 2.44183 -2.29724 -5.51731 -22.1927 23.5319 -16.5434 1.11963 -1.30472 -16.6306 -8.43024 -12.2525 -9.52589 9.75605 -26.5671 3.83234 9.62039 -5.15743 27.9699 4.42855 8.81677 -21.6412 -57.0825 -51.3806 19.8357 1.69094 35.7214 -44.376 13.5993 -14.9102 45.1687 -47.1536 29.1528 0.466238 39.9011 1.55929 -2.34486 -10.847 -0.015978 -1.38477e-009 8.75232e-006 -1.47222e-008 
-59.1564 84.0821 174.978 -1.26959 -2.14326 146.444 -23.741 -6.51736 -13.5985 -1.34665 61.8218 -8.66427 25.7723 -45.2538 8.95974 0.0462048 0.000530889 0.662642 11.9847 32.813 -4.20066 5.43291 2.08295 -2.46303 -7.1128 -20.8301 19.4513 -17.6493 1.12522 -1.12637 -22.1597 -10.1947 -14.8906 -10.9738 6.58103 -25.5141 6.03378 9.40873 -5.44722 29.4025 4.6231 8.87473 -22.1594 -60.3186 -52.7793 23.0515 -0.677243 37.43 -44.0225 13.7545 -15.3973 42.3265 -48.1948 30.8159 0.480091 33.4151 2.22766 -2.47312 -11.5614 -0.032868 -1.38477e-009 8.75232e-006 -1.47222e-008 
-60.6971 82.7141 169.531 -0.998017 -1.79574 151.428 -23.8733 -0.514562 -11.7084 -1.57257 59.2084 -14.1099 29.9436 -41.9555 9.46928 0.0462048 0.000530889 0.662642 12.7617 31.4982 -3.83833 7.46895 2.18344 -2.61958 -9.18157 -18.4268 13.338 -18.7942 1.15484 -1.04858 -28.1349 -10.3086 -17.3284 -10.2607 8.89145 -27.1489 5.48367 9.4264 -6.38705 30.7203 4.85615 9.06752 -20.143 -63.1232 -50.2752 26.4162 -2.89185 39.1694 -42.8736 13.4468 -14.8696 38.8277 -51.6341 31.5128 0.466674 34.9553 1.99134 -3.62151 -9.92183 -0.0212913 -1.38477e-009 8.75232e-006 -1.47222e-008 
-62.371 81.0215 163.839 -0.505135 -0.311551 157.176 -23.5747 6.23128 -8.85708 -2.06636 58.0241 -21.235 32.4253 -35.0155 8.06104 0.0462048 0.000530889 0.662642 12.5694 31.1699 -3.0499 11.516 1.4079 -2.78172 -10.9339 -15.4846 5.46891 -19.9735 1.28439 -1.34779 -32.6713 -8.43907 -18.9496 -8.55649 13.1695 -30.602 3.13975 9.64142 -7.53121 31.5152 5.06713 9.36254 -15.4968 -66.3346 -44.0293 29.3577 -4.3016 40.9361 -41.3119 12.8452 -13.6035 33.4416 -56.8538 27.1934 0.455473 42.8259 1.2389 -6.39763 -5.40469 0.151302 -1.38477e-009 8.75232e-006 -1.47222e-008 
